<mxfile host="app.diagrams.net" modified="2023-06-08T01:33:16.704Z" agent="Mozilla/5.0 (Windows NT 10.0; Win64; x64) AppleWebKit/537.36 (KHTML, like Gecko) Chrome/114.0.0.0 Safari/537.36" etag="MbL6MpDFSibZ-7uOAfMC" version="21.3.7" type="device">
  <diagram name="페이지-1" id="G8WgvRoMwrY-slsjsyky">
    <mxGraphModel dx="1434" dy="699" grid="1" gridSize="10" guides="1" tooltips="1" connect="1" arrows="1" fold="1" page="1" pageScale="1" pageWidth="4681" pageHeight="3300" math="0" shadow="0">
      <root>
        <mxCell id="0" />
        <mxCell id="1" parent="0" />
        <mxCell id="_RCiKXbcBdfcWEXnF-Af-20" style="edgeStyle=orthogonalEdgeStyle;rounded=0;orthogonalLoop=1;jettySize=auto;html=1;entryX=0;entryY=0.5;entryDx=0;entryDy=0;" edge="1" parent="1" source="_RCiKXbcBdfcWEXnF-Af-1" target="_RCiKXbcBdfcWEXnF-Af-2">
          <mxGeometry relative="1" as="geometry" />
        </mxCell>
        <mxCell id="_RCiKXbcBdfcWEXnF-Af-1" value="사용자" style="shape=umlActor;verticalLabelPosition=bottom;verticalAlign=top;html=1;outlineConnect=0;" vertex="1" parent="1">
          <mxGeometry x="80" y="120" width="125" height="250" as="geometry" />
        </mxCell>
        <mxCell id="_RCiKXbcBdfcWEXnF-Af-28" style="edgeStyle=orthogonalEdgeStyle;rounded=0;orthogonalLoop=1;jettySize=auto;html=1;entryX=0;entryY=0.5;entryDx=0;entryDy=0;" edge="1" parent="1" source="_RCiKXbcBdfcWEXnF-Af-2" target="_RCiKXbcBdfcWEXnF-Af-21">
          <mxGeometry relative="1" as="geometry" />
        </mxCell>
        <mxCell id="_RCiKXbcBdfcWEXnF-Af-2" value="시작화면" style="ellipse;whiteSpace=wrap;html=1;" vertex="1" parent="1">
          <mxGeometry x="280" y="120" width="160" height="80" as="geometry" />
        </mxCell>
        <mxCell id="_RCiKXbcBdfcWEXnF-Af-14" value="최신영화" style="swimlane;fontStyle=0;childLayout=stackLayout;horizontal=1;startSize=30;horizontalStack=0;resizeParent=1;resizeParentMax=0;resizeLast=0;collapsible=1;marginBottom=0;whiteSpace=wrap;html=1;" vertex="1" parent="1">
          <mxGeometry x="280" y="220" width="160" height="180" as="geometry" />
        </mxCell>
        <mxCell id="_RCiKXbcBdfcWEXnF-Af-15" value="영화명" style="text;strokeColor=none;fillColor=none;align=left;verticalAlign=middle;spacingLeft=4;spacingRight=4;overflow=hidden;points=[[0,0.5],[1,0.5]];portConstraint=eastwest;rotatable=0;whiteSpace=wrap;html=1;" vertex="1" parent="_RCiKXbcBdfcWEXnF-Af-14">
          <mxGeometry y="30" width="160" height="30" as="geometry" />
        </mxCell>
        <mxCell id="_RCiKXbcBdfcWEXnF-Af-16" value="감독" style="text;strokeColor=none;fillColor=none;align=left;verticalAlign=middle;spacingLeft=4;spacingRight=4;overflow=hidden;points=[[0,0.5],[1,0.5]];portConstraint=eastwest;rotatable=0;whiteSpace=wrap;html=1;" vertex="1" parent="_RCiKXbcBdfcWEXnF-Af-14">
          <mxGeometry y="60" width="160" height="30" as="geometry" />
        </mxCell>
        <mxCell id="_RCiKXbcBdfcWEXnF-Af-17" value="출연진" style="text;strokeColor=none;fillColor=none;align=left;verticalAlign=middle;spacingLeft=4;spacingRight=4;overflow=hidden;points=[[0,0.5],[1,0.5]];portConstraint=eastwest;rotatable=0;whiteSpace=wrap;html=1;" vertex="1" parent="_RCiKXbcBdfcWEXnF-Af-14">
          <mxGeometry y="90" width="160" height="30" as="geometry" />
        </mxCell>
        <mxCell id="_RCiKXbcBdfcWEXnF-Af-18" value="개봉일자" style="text;strokeColor=none;fillColor=none;align=left;verticalAlign=middle;spacingLeft=4;spacingRight=4;overflow=hidden;points=[[0,0.5],[1,0.5]];portConstraint=eastwest;rotatable=0;whiteSpace=wrap;html=1;" vertex="1" parent="_RCiKXbcBdfcWEXnF-Af-14">
          <mxGeometry y="120" width="160" height="30" as="geometry" />
        </mxCell>
        <mxCell id="_RCiKXbcBdfcWEXnF-Af-19" value="영화설명" style="text;strokeColor=none;fillColor=none;align=left;verticalAlign=middle;spacingLeft=4;spacingRight=4;overflow=hidden;points=[[0,0.5],[1,0.5]];portConstraint=eastwest;rotatable=0;whiteSpace=wrap;html=1;" vertex="1" parent="_RCiKXbcBdfcWEXnF-Af-14">
          <mxGeometry y="150" width="160" height="30" as="geometry" />
        </mxCell>
        <mxCell id="_RCiKXbcBdfcWEXnF-Af-32" style="edgeStyle=orthogonalEdgeStyle;rounded=0;orthogonalLoop=1;jettySize=auto;html=1;entryX=0;entryY=0.5;entryDx=0;entryDy=0;" edge="1" parent="1" source="_RCiKXbcBdfcWEXnF-Af-21" target="_RCiKXbcBdfcWEXnF-Af-31">
          <mxGeometry relative="1" as="geometry" />
        </mxCell>
        <mxCell id="_RCiKXbcBdfcWEXnF-Af-21" value="영화검색" style="ellipse;whiteSpace=wrap;html=1;" vertex="1" parent="1">
          <mxGeometry x="520" y="120" width="160" height="80" as="geometry" />
        </mxCell>
        <mxCell id="_RCiKXbcBdfcWEXnF-Af-22" value="공유하기" style="swimlane;fontStyle=0;childLayout=stackLayout;horizontal=1;startSize=30;horizontalStack=0;resizeParent=1;resizeParentMax=0;resizeLast=0;collapsible=1;marginBottom=0;whiteSpace=wrap;html=1;" vertex="1" parent="1">
          <mxGeometry x="1200" y="400" width="160" height="120" as="geometry" />
        </mxCell>
        <mxCell id="_RCiKXbcBdfcWEXnF-Af-23" value="SNS 링크 보내기" style="text;strokeColor=none;fillColor=none;align=left;verticalAlign=middle;spacingLeft=4;spacingRight=4;overflow=hidden;points=[[0,0.5],[1,0.5]];portConstraint=eastwest;rotatable=0;whiteSpace=wrap;html=1;" vertex="1" parent="_RCiKXbcBdfcWEXnF-Af-22">
          <mxGeometry y="30" width="160" height="30" as="geometry" />
        </mxCell>
        <mxCell id="_RCiKXbcBdfcWEXnF-Af-24" value="카카오 링크 보내기" style="text;strokeColor=none;fillColor=none;align=left;verticalAlign=middle;spacingLeft=4;spacingRight=4;overflow=hidden;points=[[0,0.5],[1,0.5]];portConstraint=eastwest;rotatable=0;whiteSpace=wrap;html=1;" vertex="1" parent="_RCiKXbcBdfcWEXnF-Af-22">
          <mxGeometry y="60" width="160" height="30" as="geometry" />
        </mxCell>
        <mxCell id="_RCiKXbcBdfcWEXnF-Af-25" value="Face에 공유하기" style="text;strokeColor=none;fillColor=none;align=left;verticalAlign=middle;spacingLeft=4;spacingRight=4;overflow=hidden;points=[[0,0.5],[1,0.5]];portConstraint=eastwest;rotatable=0;whiteSpace=wrap;html=1;" vertex="1" parent="_RCiKXbcBdfcWEXnF-Af-22">
          <mxGeometry y="90" width="160" height="30" as="geometry" />
        </mxCell>
        <mxCell id="_RCiKXbcBdfcWEXnF-Af-37" style="edgeStyle=orthogonalEdgeStyle;rounded=0;orthogonalLoop=1;jettySize=auto;html=1;entryX=0;entryY=0.5;entryDx=0;entryDy=0;" edge="1" parent="1" source="_RCiKXbcBdfcWEXnF-Af-31" target="_RCiKXbcBdfcWEXnF-Af-34">
          <mxGeometry relative="1" as="geometry" />
        </mxCell>
        <mxCell id="_RCiKXbcBdfcWEXnF-Af-39" style="edgeStyle=orthogonalEdgeStyle;rounded=0;orthogonalLoop=1;jettySize=auto;html=1;entryX=0;entryY=0.5;entryDx=0;entryDy=0;" edge="1" parent="1" source="_RCiKXbcBdfcWEXnF-Af-31" target="_RCiKXbcBdfcWEXnF-Af-33">
          <mxGeometry relative="1" as="geometry" />
        </mxCell>
        <mxCell id="_RCiKXbcBdfcWEXnF-Af-40" style="edgeStyle=orthogonalEdgeStyle;rounded=0;orthogonalLoop=1;jettySize=auto;html=1;entryX=0;entryY=0.5;entryDx=0;entryDy=0;" edge="1" parent="1" source="_RCiKXbcBdfcWEXnF-Af-31" target="_RCiKXbcBdfcWEXnF-Af-35">
          <mxGeometry relative="1" as="geometry" />
        </mxCell>
        <mxCell id="_RCiKXbcBdfcWEXnF-Af-41" style="edgeStyle=orthogonalEdgeStyle;rounded=0;orthogonalLoop=1;jettySize=auto;html=1;entryX=0;entryY=0.5;entryDx=0;entryDy=0;" edge="1" parent="1" source="_RCiKXbcBdfcWEXnF-Af-31" target="_RCiKXbcBdfcWEXnF-Af-36">
          <mxGeometry relative="1" as="geometry" />
        </mxCell>
        <mxCell id="_RCiKXbcBdfcWEXnF-Af-31" value="자세히보기" style="ellipse;whiteSpace=wrap;html=1;" vertex="1" parent="1">
          <mxGeometry x="760" y="120" width="160" height="80" as="geometry" />
        </mxCell>
        <mxCell id="_RCiKXbcBdfcWEXnF-Af-43" style="edgeStyle=orthogonalEdgeStyle;rounded=0;orthogonalLoop=1;jettySize=auto;html=1;entryX=0;entryY=0.5;entryDx=0;entryDy=0;" edge="1" parent="1" source="_RCiKXbcBdfcWEXnF-Af-33" target="_RCiKXbcBdfcWEXnF-Af-42">
          <mxGeometry relative="1" as="geometry" />
        </mxCell>
        <mxCell id="_RCiKXbcBdfcWEXnF-Af-33" value="영화예매하기" style="ellipse;whiteSpace=wrap;html=1;" vertex="1" parent="1">
          <mxGeometry x="1000" y="160" width="160" height="80" as="geometry" />
        </mxCell>
        <mxCell id="_RCiKXbcBdfcWEXnF-Af-51" style="edgeStyle=orthogonalEdgeStyle;rounded=0;orthogonalLoop=1;jettySize=auto;html=1;entryX=0;entryY=0.5;entryDx=0;entryDy=0;entryPerimeter=0;" edge="1" parent="1" source="_RCiKXbcBdfcWEXnF-Af-34" target="_RCiKXbcBdfcWEXnF-Af-50">
          <mxGeometry relative="1" as="geometry" />
        </mxCell>
        <mxCell id="_RCiKXbcBdfcWEXnF-Af-34" value="영화평 남기기" style="ellipse;whiteSpace=wrap;html=1;" vertex="1" parent="1">
          <mxGeometry x="1000" y="40" width="160" height="80" as="geometry" />
        </mxCell>
        <mxCell id="_RCiKXbcBdfcWEXnF-Af-45" style="edgeStyle=orthogonalEdgeStyle;rounded=0;orthogonalLoop=1;jettySize=auto;html=1;" edge="1" parent="1" source="_RCiKXbcBdfcWEXnF-Af-35" target="_RCiKXbcBdfcWEXnF-Af-44">
          <mxGeometry relative="1" as="geometry" />
        </mxCell>
        <mxCell id="_RCiKXbcBdfcWEXnF-Af-35" value="OTT 링크 바로가기" style="ellipse;whiteSpace=wrap;html=1;" vertex="1" parent="1">
          <mxGeometry x="1000" y="280" width="160" height="80" as="geometry" />
        </mxCell>
        <mxCell id="_RCiKXbcBdfcWEXnF-Af-36" value="공유하기" style="ellipse;whiteSpace=wrap;html=1;" vertex="1" parent="1">
          <mxGeometry x="1000" y="400" width="160" height="80" as="geometry" />
        </mxCell>
        <mxCell id="_RCiKXbcBdfcWEXnF-Af-42" value="제휴영화관 링크" style="ellipse;whiteSpace=wrap;html=1;" vertex="1" parent="1">
          <mxGeometry x="1240" y="160" width="160" height="80" as="geometry" />
        </mxCell>
        <mxCell id="_RCiKXbcBdfcWEXnF-Af-44" value="OTT 연결" style="ellipse;whiteSpace=wrap;html=1;" vertex="1" parent="1">
          <mxGeometry x="1240" y="280" width="160" height="80" as="geometry" />
        </mxCell>
        <mxCell id="_RCiKXbcBdfcWEXnF-Af-50" value="" style="shape=cylinder3;whiteSpace=wrap;html=1;boundedLbl=1;backgroundOutline=1;size=15;" vertex="1" parent="1">
          <mxGeometry x="1240" y="40" width="60" height="80" as="geometry" />
        </mxCell>
      </root>
    </mxGraphModel>
  </diagram>
</mxfile>
